<svg width="60" height="60" viewBox="0 0 60 60" fill="none" xmlns="http://www.w3.org/2000/svg">
<g clip-path="url(#clip0)">
<path d="M51.7516 52.0926L35.6955 27.9025C34.1405 25.5601 30.981 24.9211 28.6382 26.4761C26.2953 28.0311 25.6567 31.1911 27.2118 33.5339L43.2674 57.724C44.2474 59.2007 45.8652 60 47.514 60C48.4808 60 49.4586 59.7249 50.3247 59.1504C52.6676 57.5949 53.3066 54.4354 51.7516 52.0926V52.0926Z" fill="#53633B"/>
<path d="M12.5912 0C9.77966 0 7.5 2.27966 7.5 5.09125V54.9083C7.5 57.7199 9.77966 59.9995 12.5912 59.9995C15.4033 59.9995 17.6825 57.7199 17.6825 54.9083V5.09125C17.6825 2.27966 15.4033 0 12.5912 0Z" fill="#283618"/>
<path d="M31.4539 0H12.5912C9.77966 0 7.5 2.27966 7.5 5.09125C7.5 7.90329 9.77966 10.1825 12.5912 10.1825H31.4539C35.7115 10.1825 39.1759 13.6469 39.1759 17.905C39.1759 22.1626 35.7115 25.627 31.4539 25.627H12.5912C9.77966 25.627 7.5 27.9062 7.5 30.7182C7.5 33.5303 9.77966 35.8095 12.5912 35.8095H31.4539C41.3264 35.8095 49.3584 27.7776 49.3584 17.9045C49.3584 8.03192 41.3264 0 31.4539 0V0Z" fill="#606C38"/>
<path d="M31.4539 0H23.7657V10.1825H31.4539C35.7115 10.1825 39.1759 13.6469 39.1759 17.905C39.1759 22.1626 35.7115 25.627 31.4539 25.627H23.7657V35.8095H31.4539C41.3264 35.8095 49.3584 27.7776 49.3584 17.9045C49.3584 8.03192 41.3264 0 31.4539 0V0Z" fill="#283618"/>
</g>
<defs>
<clipPath id="clip0">
<rect width="60" height="60" fill="white"/>
</clipPath>
</defs>
</svg>
